<svg xmlns="http://www.w3.org/2000/svg" viewBox="-55.243 -51.043 110.486 102.086" width="60.000mm" height="55.438mm">
  <title>SecuraCV Bird Glyph</title>
  <desc>The Canary house mark: a monoline bird carrying a notepad, with a C spiralled into its wing and a V nested in its tail. GENERATED from canary_mark_lib.scad by gen_mark_svg.py — edit the paths there, not here. One stroke weight throughout, taken from the 7" case, for embossing, engraving, inlay, stamping or laser cutting.</desc>
  <g id="securacv-bird" fill="none" stroke="#000" stroke-width="4.086" stroke-linecap="round" stroke-linejoin="round">
    <path d="M -41.413 -31.237 L -41.488 -33.062 L -41.306 -34.856 L -40.869 -36.619 L -40.175 -38.350 L -39.225 -40.050 L -38.112 -41.544 L -36.837 -42.831 L -35.400 -43.913 L -33.800 -44.788 L -32.100 -45.500 L -30.300 -46.050 L -28.400 -46.438 L -26.400 -46.662 L -24.356 -46.731 L -22.269 -46.644 L -20.137 -46.400 L -17.962 -46.000 L -15.912 -45.400 L -13.987 -44.600 L -12.188 -43.600 L -10.512 -42.400 L -9.019 -41.062 L -7.706 -39.588 L -6.575 -37.975 L -5.625 -36.225 L -4.812 -34.450 L -4.138 -32.650 L -3.600 -30.825 L -3.200 -28.975 L -2.900 -27.131 L -2.700 -25.294 L -2.600 -23.462 L -2.600 -21.637"/>
    <path d="M -41.300 -28.500 L -50.600 -23.700 L -41.900 -18.200"/>
    <path d="M -41.900 -18.200 L -41.000 -12.200 L -39.700 -6.400"/>
    <path d="M -42.738 -3.325 L -39.163 -4.075 L -36.244 -4.450 L -33.981 -4.450 L -32.375 -4.075 L -31.425 -3.325 L -30.519 -1.731 L -29.656 0.706 L -28.838 3.988 L -28.062 8.113 L -27.612 11.469 L -27.487 14.056 L -27.688 15.875 L -28.213 16.925 L -29.438 17.900 L -31.363 18.800 L -33.987 19.625 L -37.312 20.375 L -40.037 20.750 L -42.162 20.750 L -43.688 20.375 L -44.613 19.625 L -45.575 18.031 L -46.575 15.594 L -47.613 12.312 L -48.688 8.188 L -49.356 4.831 L -49.619 2.244 L -49.475 0.425 L -48.925 -0.625 L -47.619 -1.600 L -45.556 -2.500 Z"/>
    <path d="M -39.000 -7.400 L -29.800 -9.300"/>
    <path d="M -41.925 18.625 L -41.275 20.375 L -40.450 22.069 L -39.450 23.706 L -38.275 25.287 L -36.925 26.812 L -35.413 28.256 L -33.737 29.619 L -31.900 30.900 L -29.900 32.100 L -27.756 33.162 L -25.469 34.087 L -23.037 34.875 L -20.462 35.525 L -17.831 36.069 L -15.144 36.506 L -12.400 36.838 L -9.600 37.062 L -6.881 37.212 L -4.244 37.287 L -1.688 37.288 L 0.787 37.212 L 3.025 37.100 L 5.025 36.950 L 6.788 36.763 L 8.312 36.538"/>
    <path d="M 1.287 -15.913 L 3.212 -14.787 L 5.175 -13.606 L 7.175 -12.369 L 9.213 -11.075 L 11.287 -9.725 L 13.425 -8.350 L 15.625 -6.950 L 17.888 -5.525 L 20.212 -4.075 L 22.575 -2.669 L 24.975 -1.306 L 27.412 0.013 L 29.888 1.288 L 32.344 2.463 L 34.781 3.538 L 37.200 4.513 L 39.600 5.388 L 41.900 6.125 L 44.100 6.725 L 46.200 7.188 L 48.200 7.512"/>
    <path d="M 47.375 10.512 L 44.825 12.188 L 42.287 13.787 L 39.763 15.312 L 37.250 16.762 L 34.750 18.137 L 32.419 19.487 L 30.256 20.812 L 28.263 22.113 L 26.437 23.387 L 24.769 24.562 L 23.256 25.638 L 21.900 26.613 L 20.700 27.488"/>
    <path d="M -9.887 -12.725 L -11.812 -12.875 L -13.756 -12.637 L -15.719 -12.012 L -17.700 -11.000 L -19.700 -9.600 L -21.469 -8.000 L -23.006 -6.200 L -24.312 -4.200 L -25.388 -2.000 L -26.256 0.250 L -26.919 2.550 L -27.375 4.900 L -27.625 7.300 L -27.581 9.700 L -27.244 12.100 L -26.612 14.500 L -25.688 16.900 L -24.494 19.100 L -23.031 21.100 L -21.300 22.900 L -19.300 24.500 L -17.100 26.000 L -14.700 27.400 L -12.100 28.700 L -9.300 29.900 L -6.500 30.969 L -3.700 31.906 L -0.900 32.712 L 1.900 33.387 L 4.700 33.975 L 7.500 34.475 L 10.300 34.887 L 13.100 35.212"/>
    <path d="M 8.950 -2.537 L 7.050 -3.562 L 5.100 -4.312 L 3.100 -4.787 L 1.050 -4.987 L -1.050 -4.912 L -3.000 -4.519 L -4.800 -3.806 L -6.450 -2.775 L -7.950 -1.425 L -9.219 0.087 L -10.256 1.762 L -11.062 3.600 L -11.638 5.600 L -11.950 7.562 L -12.000 9.487 L -11.788 11.375 L -11.312 13.225 L -10.594 14.913 L -9.631 16.438 L -8.425 17.800 L -6.975 19.000 L -5.406 19.981 L -3.719 20.744 L -1.912 21.288 L 0.013 21.613 L 1.937 21.713 L 3.862 21.588 L 5.787 21.238 L 7.712 20.663"/>
    <path d="M 11.700 10.900 L 18.100 28.500 L 29.000 6.900"/>
    <path d="M -27.800 35.500 L -28.200 43.500"/>
    <path d="M -6.100 37.400 L -5.400 43.500"/>
    <path d="M -38.550 45.975 L -35.050 44.525 L -32.025 43.800 L -29.475 43.800 L -26.900 44.525 L -24.300 45.975"/>
    <path d="M -15.000 46.300 L -11.800 44.900 L -9.000 44.200 L -6.600 44.200 L -4.050 44.825 L -1.350 46.075"/>
    <circle fill="#000" stroke="none" cx="-29.100" cy="-29.400" r="3.200"/>
  </g>
</svg>
