<svg xmlns="http://www.w3.org/2000/svg" viewBox="0 0 64 64" width="64" height="64" role="img" aria-label="Canary Hearth"><title>Canary Hearth</title><g shape-rendering="geometricPrecision"><path d="M55.698 48.286L56.528 47.516L35.085 59.896L34.255 60.666Z" fill="none" stroke="var(--scv-figure-ghost, #8b90a0)" stroke-width="1.25" stroke-dasharray="3 2.5" stroke-linejoin="round"/><path d="M56.528 47.516L57.05 46.363L35.606 58.743L35.085 59.896Z" fill="none" stroke="var(--scv-figure-ghost, #8b90a0)" stroke-width="1.25" stroke-dasharray="3 2.5" stroke-linejoin="round"/><path d="M57.05 46.363L57.228 44.905L35.784 57.285L35.606 58.743Z" fill="none" stroke="var(--scv-figure-ghost, #8b90a0)" stroke-width="1.25" stroke-dasharray="3 2.5" stroke-linejoin="round"/><path d="M57.228 44.905L57.228 23.465L35.784 35.845L35.784 57.285Z" fill="none" stroke="var(--scv-figure-ghost, #8b90a0)" stroke-width="1.25" stroke-dasharray="3 2.5" stroke-linejoin="round"/><path d="M57.228 23.465L57.05 21.801L35.606 34.182L35.784 35.845Z" fill="none" stroke="var(--scv-figure-ghost, #8b90a0)" stroke-width="1.25" stroke-dasharray="3 2.5" stroke-linejoin="round"/><path d="M57.05 21.801L56.528 20.046L35.085 32.426L35.606 34.182Z" fill="none" stroke="var(--scv-figure-ghost, #8b90a0)" stroke-width="1.25" stroke-dasharray="3 2.5" stroke-linejoin="round"/><path d="M56.528 20.046L55.698 18.318L34.255 30.698L35.085 32.426Z" fill="none" stroke="var(--scv-figure-ghost, #8b90a0)" stroke-width="1.25" stroke-dasharray="3 2.5" stroke-linejoin="round"/><path d="M55.698 18.318L54.617 16.735L33.173 29.116L34.255 30.698Z" fill="none" stroke="var(--scv-figure-ghost, #8b90a0)" stroke-width="1.25" stroke-dasharray="3 2.5" stroke-linejoin="round"/><path d="M54.617 16.735L53.357 15.406L31.914 27.786L33.173 29.116Z" fill="none" stroke="var(--scv-figure-ghost, #8b90a0)" stroke-width="1.25" stroke-dasharray="3 2.5" stroke-linejoin="round"/><path d="M53.357 15.406L52.006 14.42L30.562 26.8L31.914 27.786Z" fill="none" stroke="var(--scv-figure-ghost, #8b90a0)" stroke-width="1.25" stroke-dasharray="3 2.5" stroke-linejoin="round"/><path d="M52.006 14.42L33.438 3.7L11.994 16.08L30.562 26.8Z" fill="none" stroke="var(--scv-figure-ghost, #8b90a0)" stroke-width="1.25" stroke-dasharray="3 2.5" stroke-linejoin="round"/><path d="M33.438 3.7L32.086 3.125L10.643 15.505L11.994 16.08Z" fill="none" stroke="var(--scv-figure-ghost, #8b90a0)" stroke-width="1.25" stroke-dasharray="3 2.5" stroke-linejoin="round"/><path d="M32.086 3.125L30.827 3L9.383 15.38L10.643 15.505Z" fill="none" stroke="var(--scv-figure-ghost, #8b90a0)" stroke-width="1.25" stroke-dasharray="3 2.5" stroke-linejoin="round"/><path d="M30.827 3L29.745 3.334L8.302 15.714L9.383 15.38Z" fill="none" stroke="var(--scv-figure-ghost, #8b90a0)" stroke-width="1.25" stroke-dasharray="3 2.5" stroke-linejoin="round"/><path d="M30.562 60.3L31.914 60.875L33.173 61L34.255 60.666L35.085 59.896L35.606 58.743L35.784 57.285L35.784 35.845L35.606 34.182L35.085 32.426L34.255 30.698L33.173 29.116L31.914 27.786L30.562 26.8L11.994 16.08L10.643 15.505L9.383 15.38L8.302 15.714L7.472 16.484L6.95 17.637L6.772 19.095L6.772 40.535L6.95 42.199L7.472 43.954L8.302 45.682L9.383 47.265L10.643 48.594L11.994 49.58Z" fill="none" stroke="var(--scv-figure-ghost, #8b90a0)" stroke-width="1.25" stroke-dasharray="3 2.5" stroke-linejoin="round"/></g></svg>
