<svg xmlns="http://www.w3.org/2000/svg" viewBox="0 0 64 64" width="64" height="64" role="img" aria-label="Canary Chore"><title>Canary Chore</title><g shape-rendering="geometricPrecision"><path d="M52.928 53.014L53.845 52.164L40.651 59.781L39.735 60.631Z" fill="none" stroke="var(--scv-figure-ghost, #8b90a0)" stroke-width="1.25" stroke-dasharray="3 2.5" stroke-linejoin="round"/><path d="M53.845 52.164L54.421 50.89L41.227 58.508L40.651 59.781Z" fill="none" stroke="var(--scv-figure-ghost, #8b90a0)" stroke-width="1.25" stroke-dasharray="3 2.5" stroke-linejoin="round"/><path d="M54.421 50.89L54.617 49.28L41.424 56.897L41.227 58.508Z" fill="none" stroke="var(--scv-figure-ghost, #8b90a0)" stroke-width="1.25" stroke-dasharray="3 2.5" stroke-linejoin="round"/><path d="M54.617 49.28L54.617 25.602L41.424 33.219L41.424 56.897Z" fill="none" stroke="var(--scv-figure-ghost, #8b90a0)" stroke-width="1.25" stroke-dasharray="3 2.5" stroke-linejoin="round"/><path d="M54.617 25.602L54.421 23.764L41.227 31.382L41.424 33.219Z" fill="none" stroke="var(--scv-figure-ghost, #8b90a0)" stroke-width="1.25" stroke-dasharray="3 2.5" stroke-linejoin="round"/><path d="M54.421 23.764L53.845 21.826L40.651 29.443L41.227 31.382Z" fill="none" stroke="var(--scv-figure-ghost, #8b90a0)" stroke-width="1.25" stroke-dasharray="3 2.5" stroke-linejoin="round"/><path d="M53.845 21.826L52.928 19.917L39.735 27.534L40.651 29.443Z" fill="none" stroke="var(--scv-figure-ghost, #8b90a0)" stroke-width="1.25" stroke-dasharray="3 2.5" stroke-linejoin="round"/><path d="M52.928 19.917L51.734 18.169L38.54 25.786L39.735 27.534Z" fill="none" stroke="var(--scv-figure-ghost, #8b90a0)" stroke-width="1.25" stroke-dasharray="3 2.5" stroke-linejoin="round"/><path d="M51.734 18.169L50.343 16.701L37.149 24.318L38.54 25.786Z" fill="none" stroke="var(--scv-figure-ghost, #8b90a0)" stroke-width="1.25" stroke-dasharray="3 2.5" stroke-linejoin="round"/><path d="M50.343 16.701L48.85 15.612L35.656 23.229L37.149 24.318Z" fill="none" stroke="var(--scv-figure-ghost, #8b90a0)" stroke-width="1.25" stroke-dasharray="3 2.5" stroke-linejoin="round"/><path d="M48.85 15.612L28.344 3.773L15.15 11.39L35.656 23.229Z" fill="none" stroke="var(--scv-figure-ghost, #8b90a0)" stroke-width="1.25" stroke-dasharray="3 2.5" stroke-linejoin="round"/><path d="M28.344 3.773L26.851 3.138L13.657 10.755L15.15 11.39Z" fill="none" stroke="var(--scv-figure-ghost, #8b90a0)" stroke-width="1.25" stroke-dasharray="3 2.5" stroke-linejoin="round"/><path d="M26.851 3.138L25.46 3L12.266 10.617L13.657 10.755Z" fill="none" stroke="var(--scv-figure-ghost, #8b90a0)" stroke-width="1.25" stroke-dasharray="3 2.5" stroke-linejoin="round"/><path d="M25.46 3L24.265 3.369L11.072 10.986L12.266 10.617Z" fill="none" stroke="var(--scv-figure-ghost, #8b90a0)" stroke-width="1.25" stroke-dasharray="3 2.5" stroke-linejoin="round"/><path d="M35.656 60.227L37.149 60.862L38.54 61L39.735 60.631L40.651 59.781L41.227 58.508L41.424 56.897L41.424 33.219L41.227 31.382L40.651 29.443L39.735 27.534L38.54 25.786L37.149 24.318L35.656 23.229L15.15 11.39L13.657 10.755L12.266 10.617L11.072 10.986L10.155 11.836L9.579 13.11L9.383 14.72L9.383 38.398L9.579 40.236L10.155 42.174L11.072 44.083L12.266 45.831L13.657 47.299L15.15 48.388Z" fill="none" stroke="var(--scv-figure-ghost, #8b90a0)" stroke-width="1.25" stroke-dasharray="3 2.5" stroke-linejoin="round"/></g></svg>
