<svg xmlns="http://www.w3.org/2000/svg" viewBox="0 0 256 256" width="256" height="256" role="img" aria-label="Canary Vision Doorbell — face plate"><title>Canary Vision Doorbell — face plate</title><g shape-rendering="geometricPrecision"><path d="M161.397 246.287L163.146 247.603L164.245 249.135L164.62 250.779L164.245 252.424L163.146 253.956L161.397 255.272L157.733 257.387L155.454 258.397L152.8 259.031L149.953 259.248L147.105 259.031L144.451 258.397L142.172 257.387L92.288 228.587L90.539 227.271L89.44 225.739L89.065 224.094L89.44 222.45L90.539 220.918L92.288 219.602L95.952 217.487L98.231 216.477L100.885 215.842L103.732 215.626L106.58 215.842L109.234 216.477L111.513 217.487Z" fill="var(--scv-figure-shadow, rgba(16,18,24,.14))"/><path d="M132.55 204.645L132.366 202.381L130.131 203.671L130.315 205.935Z" fill="#b58800" stroke="#946f00" stroke-width=".5" stroke-linejoin="round"/><path d="M132.366 202.381L131.821 199.991L129.586 201.282L130.131 203.671Z" fill="#c79600" stroke="#a47b00" stroke-width=".5" stroke-linejoin="round"/><path d="M131.821 199.991L130.936 197.568L128.701 198.858L129.586 201.282Z" fill="#d6a100" stroke="#b08400" stroke-width=".5" stroke-linejoin="round"/><path d="M130.936 197.568L129.744 195.204L127.509 196.494L128.701 198.858Z" fill="#e1a800" stroke="#b88a00" stroke-width=".5" stroke-linejoin="round"/><path d="M129.744 195.204L128.293 192.99L126.058 194.28L127.509 196.494Z" fill="#e6ad00" stroke="#bd8e00" stroke-width=".5" stroke-linejoin="round"/><path d="M128.293 192.99L126.637 191.012L124.402 192.302L126.058 194.28Z" fill="#e7ad00" stroke="#bd8e00" stroke-width=".5" stroke-linejoin="round"/><path d="M126.637 191.012L124.84 189.345L122.605 190.635L124.402 192.302Z" fill="#e2aa00" stroke="#ba8b00" stroke-width=".5" stroke-linejoin="round"/><path d="M124.84 189.345L122.971 188.053L120.736 189.344L122.605 190.635Z" fill="#d9a300" stroke="#b28600" stroke-width=".5" stroke-linejoin="round"/><path d="M122.971 188.053L121.102 187.187L118.867 188.477L120.736 189.344Z" fill="#cc9900" stroke="#a77d00" stroke-width=".5" stroke-linejoin="round"/><path d="M121.102 187.187L119.305 186.779L117.07 188.069L118.867 188.477Z" fill="#ba8b00" stroke="#987200" stroke-width=".5" stroke-linejoin="round"/><path d="M119.305 186.779L117.649 186.845L115.414 188.135L117.07 188.069Z" fill="#a57c00" stroke="#876600" stroke-width=".5" stroke-linejoin="round"/><path d="M117.649 186.845L116.197 187.382L113.962 188.673L115.414 188.135Z" fill="#8e6a00" stroke="#745700" stroke-width=".5" stroke-linejoin="round"/><path d="M129.744 210.847L130.936 209.858L128.701 211.149L127.509 212.137Z" fill="#654c00" stroke="#533e00" stroke-width=".5" stroke-linejoin="round"/><path d="M130.936 209.858L131.821 208.457L129.586 209.747L128.701 211.149Z" fill="#6e5300" stroke="#5a4400" stroke-width=".5" stroke-linejoin="round"/><path d="M131.821 208.457L132.366 206.697L130.131 207.987L129.586 209.747Z" fill="#886600" stroke="#6f5300" stroke-width=".5" stroke-linejoin="round"/><path d="M132.366 206.697L132.55 204.645L130.315 205.935L130.131 207.987Z" fill="#9f7800" stroke="#836200" stroke-width=".5" stroke-linejoin="round"/><path d="M130.315 205.935L130.131 203.671L129.586 201.282L128.701 198.858L127.509 196.494L126.058 194.28L124.402 192.302L122.605 190.635L120.736 189.344L118.867 188.477L117.07 188.069L115.414 188.135L113.962 188.673L112.771 189.661L111.886 191.062L111.34 192.823L111.156 194.874L111.34 197.138L111.886 199.528L112.771 201.952L113.962 204.316L115.414 206.529L117.07 208.508L118.867 210.175L120.736 211.466L122.605 212.333L124.402 212.741L126.058 212.675L127.509 212.137L128.701 211.149L129.586 209.747L130.131 207.987Z" fill="#654c00" stroke="#533e00" stroke-width=".5" stroke-linejoin="round"/><path d="M156.555 241.06L159.599 238.236L149.701 243.951L146.656 246.775Z" fill="#181a1d" stroke="#141517" stroke-width=".5" stroke-linejoin="round"/><path d="M159.599 238.236L161.513 234.006L151.615 239.721L149.701 243.951Z" fill="#1e1f23" stroke="#181a1d" stroke-width=".5" stroke-linejoin="round"/><path d="M161.513 234.006L162.166 228.657L152.268 234.372L151.615 239.721Z" fill="#26282c" stroke="#1f2024" stroke-width=".5" stroke-linejoin="round"/><path d="M162.166 228.657L162.166 55.365L152.268 61.08L152.268 234.372Z" fill="#292b30" stroke="#222428" stroke-width=".5" stroke-linejoin="round"/><path d="M162.166 55.365L161.513 49.262L151.615 54.977L152.268 61.08Z" fill="#2d2f34" stroke="#25262b" stroke-width=".5" stroke-linejoin="round"/><path d="M161.513 49.262L159.599 42.822L149.701 48.536L151.615 54.977Z" fill="#32353b" stroke="#292b30" stroke-width=".5" stroke-linejoin="round"/><path d="M159.599 42.822L156.555 36.482L146.656 42.197L149.701 48.536Z" fill="#36393f" stroke="#2c2f34" stroke-width=".5" stroke-linejoin="round"/><path d="M156.555 36.482L152.587 30.675L142.688 36.39L146.656 42.197Z" fill="#383b41" stroke="#2e3036" stroke-width=".5" stroke-linejoin="round"/><path d="M152.587 30.675L147.966 25.798L138.068 31.513L142.688 36.39Z" fill="#373a41" stroke="#2d3035" stroke-width=".5" stroke-linejoin="round"/><path d="M147.966 25.798L143.008 22.181L133.109 27.896L138.068 31.513Z" fill="#35383e" stroke="#2b2e33" stroke-width=".5" stroke-linejoin="round"/><path d="M143.008 22.181L122.891 10.567L112.992 16.282L133.109 27.896Z" fill="#33363c" stroke="#2a2c31" stroke-width=".5" stroke-linejoin="round"/><path d="M122.891 10.567L117.932 8.458L108.034 14.173L112.992 16.282Z" fill="#313339" stroke="#282a2f" stroke-width=".5" stroke-linejoin="round"/><path d="M117.932 8.458L113.312 8L103.413 13.715L108.034 14.173Z" fill="#2b2d32" stroke="#232529" stroke-width=".5" stroke-linejoin="round"/><path d="M113.312 8L109.344 9.225L99.445 14.94L103.413 13.715Z" fill="#232529" stroke="#1d1e22" stroke-width=".5" stroke-linejoin="round"/><path d="M133.109 245.433L138.068 247.542L142.688 248L146.656 246.775L149.701 243.951L151.615 239.721L152.268 234.372L152.268 61.08L151.615 54.977L149.701 48.536L146.656 42.197L142.688 36.39L138.068 31.513L133.109 27.896L112.992 16.282L108.034 14.173L103.413 13.715L99.445 14.94L96.401 17.764L94.487 21.994L93.834 27.343L93.834 200.635L94.487 206.738L96.401 213.178L99.445 219.518L103.413 225.325L108.034 230.202L112.992 233.819Z" fill="#181a1d" stroke="#141517" stroke-width=".5" stroke-linejoin="round"/><path d="M132.55 68.223L132.366 65.959L130.45 67.065L130.634 69.329Z" fill="#0f121a" stroke="#0c0f15" stroke-width=".5" stroke-linejoin="round"/><path d="M132.366 65.959L131.821 63.569L129.905 64.676L130.45 67.065Z" fill="#11141c" stroke="#0e1017" stroke-width=".5" stroke-linejoin="round"/><path d="M131.821 63.569L130.936 61.146L129.02 62.252L129.905 64.676Z" fill="#12151e" stroke="#0f1219" stroke-width=".5" stroke-linejoin="round"/><path d="M130.936 61.146L129.744 58.782L127.829 59.888L129.02 62.252Z" fill="#131620" stroke="#0f121a" stroke-width=".5" stroke-linejoin="round"/><path d="M129.744 58.782L128.293 56.568L126.377 57.674L127.829 59.888Z" fill="#131721" stroke="#10131b" stroke-width=".5" stroke-linejoin="round"/><path d="M128.293 56.568L126.637 54.59L124.721 55.696L126.377 57.674Z" fill="#131721" stroke="#10131b" stroke-width=".5" stroke-linejoin="round"/><path d="M126.637 54.59L124.84 52.923L122.924 54.029L124.721 55.696Z" fill="#131720" stroke="#0f131a" stroke-width=".5" stroke-linejoin="round"/><path d="M124.84 52.923L122.971 51.632L121.055 52.738L122.924 54.029Z" fill="#12161f" stroke="#0f1219" stroke-width=".5" stroke-linejoin="round"/><path d="M122.971 51.632L121.102 50.765L119.186 51.871L121.055 52.738Z" fill="#11141d" stroke="#0e1118" stroke-width=".5" stroke-linejoin="round"/><path d="M121.102 50.765L119.305 50.357L117.389 51.463L119.186 51.871Z" fill="#0f131a" stroke="#0d0f16" stroke-width=".5" stroke-linejoin="round"/><path d="M119.305 50.357L117.649 50.423L115.733 51.529L117.389 51.463Z" fill="#0e1117" stroke="#0b0e13" stroke-width=".5" stroke-linejoin="round"/><path d="M117.649 50.423L116.197 50.961L114.281 52.067L115.733 51.529Z" fill="#0c0e14" stroke="#0a0c10" stroke-width=".5" stroke-linejoin="round"/><path d="M129.744 74.425L130.936 73.437L129.02 74.543L127.829 75.531Z" fill="#080a0e" stroke="#07080c" stroke-width=".5" stroke-linejoin="round"/><path d="M130.936 73.437L131.821 72.035L129.905 73.141L129.02 74.543Z" fill="#090b10" stroke="#08090d" stroke-width=".5" stroke-linejoin="round"/><path d="M131.821 72.035L132.366 70.275L130.45 71.381L129.905 73.141Z" fill="#0b0e13" stroke="#090b10" stroke-width=".5" stroke-linejoin="round"/><path d="M132.366 70.275L132.55 68.223L130.634 69.329L130.45 71.381Z" fill="#0d1017" stroke="#0b0d13" stroke-width=".5" stroke-linejoin="round"/><path d="M130.634 69.329L130.45 67.065L129.905 64.676L129.02 62.252L127.829 59.888L126.377 57.674L124.721 55.696L122.924 54.029L121.055 52.738L119.186 51.871L117.389 51.463L115.733 51.529L114.281 52.067L113.09 53.055L112.205 54.456L111.66 56.217L111.476 58.268L111.66 60.532L112.205 62.922L113.09 65.346L114.281 67.71L115.733 69.923L117.389 71.902L119.186 73.569L121.055 74.86L122.924 75.727L124.721 76.135L126.377 76.069L127.829 75.531L129.02 74.543L129.905 73.141L130.45 71.381Z" fill="#080a0e" stroke="#07080c" stroke-width=".5" stroke-linejoin="round"/></g></svg>
