<svg xmlns="http://www.w3.org/2000/svg" viewBox="0 0 256 256" width="256" height="256" role="img" aria-label="Canary Vision — back shell (XIAO, indoor)"><title>Canary Vision — back shell (XIAO, indoor)</title><g shape-rendering="geometricPrecision"><path d="M181.396 217.744L185.3 220.682L187.754 224.103L188.591 227.774L187.754 231.445L185.3 234.865L181.396 237.803L170.929 243.846L165.841 246.1L159.916 247.517L153.558 248L147.2 247.517L141.275 246.1L136.187 243.846L74.604 208.291L70.7 205.354L68.246 201.933L67.409 198.262L68.246 194.591L70.7 191.17L74.604 188.233L85.071 182.19L90.159 179.936L96.084 178.519L102.442 178.035L108.8 178.519L114.725 179.936L119.813 182.19Z" fill="var(--scv-figure-shadow, rgba(16,18,24,.14))"/><path d="M187.258 225.715L187.903 225.118L153.014 245.26L152.37 245.858Z" fill="#414245" stroke="#353638" stroke-width=".5" stroke-linejoin="round"/><path d="M187.903 225.118L188.308 224.222L153.42 244.365L153.014 245.26Z" fill="#4f5054" stroke="#414245" stroke-width=".5" stroke-linejoin="round"/><path d="M188.308 224.222L188.446 223.089L153.558 243.232L153.42 244.365Z" fill="#64666a" stroke="#525357" stroke-width=".5" stroke-linejoin="round"/><path d="M188.446 223.089L188.446 60.54L153.558 80.683L153.558 243.232Z" fill="#6d7075" stroke="#5a5b60" stroke-width=".5" stroke-linejoin="round"/><path d="M188.446 60.54L188.308 59.248L153.42 79.391L153.558 80.683Z" fill="#76797e" stroke="#616367" stroke-width=".5" stroke-linejoin="round"/><path d="M188.308 59.248L187.903 57.884L153.014 78.027L153.42 79.391Z" fill="#85888e" stroke="#6d6f74" stroke-width=".5" stroke-linejoin="round"/><path d="M187.903 57.884L187.258 56.542L152.37 76.685L153.014 78.027Z" fill="#8f9298" stroke="#75787d" stroke-width=".5" stroke-linejoin="round"/><path d="M187.258 56.542L186.418 55.312L151.53 75.455L152.37 76.685Z" fill="#94979e" stroke="#797c81" stroke-width=".5" stroke-linejoin="round"/><path d="M186.418 55.312L185.44 54.28L150.551 74.423L151.53 75.455Z" fill="#93969d" stroke="#797b80" stroke-width=".5" stroke-linejoin="round"/><path d="M185.44 54.28L184.39 53.514L149.501 73.657L150.551 74.423Z" fill="#8d8f96" stroke="#73767b" stroke-width=".5" stroke-linejoin="round"/><path d="M184.39 53.514L106.499 8.544L71.61 28.686L149.501 73.657Z" fill="#878a90" stroke="#6f7176" stroke-width=".5" stroke-linejoin="round"/><path d="M106.499 8.544L105.449 8.097L70.56 28.24L71.61 28.686Z" fill="#818389" stroke="#6a6c71" stroke-width=".5" stroke-linejoin="round"/><path d="M105.449 8.097L104.47 8L69.582 28.143L70.56 28.24Z" fill="#717378" stroke="#5d5e63" stroke-width=".5" stroke-linejoin="round"/><path d="M104.47 8L103.63 8.259L68.742 28.402L69.582 28.143Z" fill="#5e5f64" stroke="#4d4e52" stroke-width=".5" stroke-linejoin="round"/><path d="M149.501 245.574L150.551 246.021L151.53 246.118L152.37 245.858L153.014 245.26L153.42 244.365L153.558 243.232L153.558 80.683L153.42 79.391L153.014 78.027L152.37 76.685L151.53 75.455L150.551 74.423L149.501 73.657L71.61 28.686L70.56 28.24L69.582 28.143L68.742 28.402L68.097 29L67.692 29.896L67.554 31.029L67.554 193.577L67.692 194.87L68.097 196.233L68.742 197.576L69.582 198.805L70.56 199.838L71.61 200.604Z" fill="#414245" stroke="#353638" stroke-width=".5" stroke-linejoin="round"/></g></svg>
